{
  "scene": 0,
  "scenes": [
    {
      "name": "Hierarchical Scene",
      "nodes": [0]
    }
  ],
  "nodes": [
    {
      "name": "Root",
      "children": [1, 2],
      "translation": [0.0, 0.0, 0.0]
    },
    {
      "name": "LeftBranch",
      "mesh": 0,
      "translation": [-3.0, 0.0, 0.0],
      "children": [3]
    },
    {
      "name": "RightBranch", 
      "mesh": 1,
      "translation": [3.0, 0.0, 0.0],
      "children": [4]
    },
    {
      "name": "LeftChild",
      "mesh": 0,
      "translation": [0.0, 2.0, 0.0],
      "scale": [0.5, 0.5, 0.5]
    },
    {
      "name": "RightChild",
      "mesh": 1,
      "translation": [0.0, -2.0, 0.0],
      "scale": [0.5, 0.5, 0.5]
    }
  ],
  "meshes": [
    {
      "name": "Triangle",
      "primitives": [
        {
          "attributes": {
            "POSITION": 0
          }
        }
      ]
    },
    {
      "name": "Quad",
      "primitives": [
        {
          "attributes": {
            "POSITION": 1
          }
        }
      ]
    }
  ],
  "buffers": [
    {
      "byteLength": 84,
      "uri": "data:application/octet-stream;base64,"
    }
  ],
  "bufferViews": [
    {
      "buffer": 0,
      "byteOffset": 0,
      "byteLength": 36,
      "target": 34962
    },
    {
      "buffer": 0,
      "byteOffset": 36,
      "byteLength": 48,
      "target": 34962
    }
  ],
  "accessors": [
    {
      "bufferView": 0,
      "byteOffset": 0,
      "componentType": 5126,
      "count": 3,
      "type": "VEC3",
      "max": [0.5, 0.5, 0.0],
      "min": [-0.5, -0.5, 0.0]
    },
    {
      "bufferView": 1,
      "byteOffset": 0,
      "componentType": 5126,
      "count": 4,
      "type": "VEC3",
      "max": [0.5, 0.5, 0.5],
      "min": [-0.5, -0.5, -0.5]
    }
  ],
  "asset": {
    "version": "2.0",
    "generator": "glTF Sample Models - Hierarchical Scene"
  }
}