{
  "scene": 0,
  "scenes": [
    {
      "nodes": [0, 1]
    }
  ],
  "nodes": [
    {
      "name": "Cube1",
      "mesh": 0,
      "translation": [-2.0, 0.0, 0.0]
    },
    {
      "name": "Cube2", 
      "mesh": 1,
      "translation": [2.0, 0.0, 0.0]
    }
  ],
  "meshes": [
    {
      "name": "Cube1",
      "primitives": [
        {
          "attributes": {
            "POSITION": 0
          }
        }
      ]
    },
    {
      "name": "Cube2",
      "primitives": [
        {
          "attributes": {
            "POSITION": 1
          }
        }
      ]
    }
  ],
  "buffers": [
    {
      "byteLength": 192,
      "uri": "data:application/octet-stream;base64,"
    }
  ],
  "bufferViews": [
    {
      "buffer": 0,
      "byteOffset": 0,
      "byteLength": 96,
      "target": 34962
    },
    {
      "buffer": 0,
      "byteOffset": 96,
      "byteLength": 96,
      "target": 34962
    }
  ],
  "accessors": [
    {
      "bufferView": 0,
      "byteOffset": 0,
      "componentType": 5126,
      "count": 8,
      "type": "VEC3",
      "max": [1.0, 1.0, 1.0],
      "min": [-1.0, -1.0, -1.0]
    },
    {
      "bufferView": 1,
      "byteOffset": 0,
      "componentType": 5126,
      "count": 8,
      "type": "VEC3",
      "max": [1.0, 1.0, 1.0],
      "min": [-1.0, -1.0, -1.0]
    }
  ],
  "asset": {
    "version": "2.0",
    "generator": "glTF Sample Models - Multi-Cube Scene"
  }
}